<svg width="24" height="25" viewBox="0 0 24 25" fill="none" xmlns="http://www.w3.org/2000/svg">
<path d="M22.4667 13.9633C21.6404 14.1827 20.789 14.2938 19.9341 14.2937C17.3307 14.2937 14.8858 13.2819 13.0494 11.4462C11.8434 10.2338 10.9765 8.72655 10.5349 7.07479C10.0933 5.42303 10.0925 3.68441 10.5325 2.03224C10.5875 1.82567 10.5871 1.60828 10.5315 1.40188C10.4759 1.19549 10.367 1.00734 10.2156 0.856319C10.0643 0.705296 9.87591 0.596706 9.66935 0.541443C9.46279 0.48618 9.24532 0.486186 9.03876 0.541461C6.96965 1.09265 5.0819 2.17806 3.5649 3.68879C-1.1883 8.44027 -1.1883 16.1745 3.5649 20.9284C4.69471 22.0641 6.03861 22.9645 7.51884 23.5776C8.99907 24.1906 10.5862 24.5041 12.1885 24.5C13.7903 24.5044 15.3771 24.1912 16.8569 23.5783C18.3368 22.9655 19.6803 22.0652 20.8096 20.9296C22.322 19.4129 23.4083 17.5249 23.9593 15.4553C24.014 15.2488 24.0136 15.0316 23.958 14.8254C23.9024 14.6191 23.7936 14.4311 23.6425 14.28C23.4914 14.129 23.3033 14.0202 23.0969 13.9646C22.8906 13.9091 22.6733 13.9086 22.4667 13.9633ZM19.0866 19.206C18.183 20.1143 17.1081 20.8344 15.9243 21.3246C14.7404 21.8148 13.4711 22.0655 12.1897 22.062C10.9078 22.0652 9.63809 21.8144 8.45385 21.3239C7.26961 20.8335 6.19438 20.1132 5.29034 19.2048C1.48827 15.4029 1.48827 9.21552 5.29034 5.41361C6.02504 4.68001 6.87324 4.06961 7.8023 3.6059C7.66631 5.36005 7.91077 7.12286 8.51897 8.77388C9.12717 10.4249 10.0848 11.9252 11.3263 13.1722C12.5711 14.4172 14.0715 15.3772 15.7238 15.9856C17.3761 16.594 19.1409 16.8365 20.8962 16.6962C20.4298 17.6234 19.819 18.4705 19.0866 19.206Z" fill="#2EA8C7"/>
</svg>
